<?xml version="1.0" encoding="utf-8"?>
<!-- Generator: Adobe Illustrator 16.0.3, SVG Export Plug-In . SVG Version: 6.00 Build 0)  -->
<!DOCTYPE svg PUBLIC "-//W3C//DTD SVG 1.1//EN" "http://www.w3.org/Graphics/SVG/1.1/DTD/svg11.dtd">
<svg version="1.1" id="Layer_1" xmlns="http://www.w3.org/2000/svg" xmlns:xlink="http://www.w3.org/1999/xlink" x="0px" y="0px"
	 width="532.326px" height="318.504px" viewBox="-44.057 -16.104 532.326 318.504"
	 enable-background="new -44.057 -16.104 532.326 318.504" xml:space="preserve">
<g id="svg2630" xmlns:dc="http://purl.org/dc/elements/1.1/" xmlns:cc="http://creativecommons.org/ns#" xmlns:rdf="http://www.w3.org/1999/02/22-rdf-syntax-ns#" xmlns:svg="http://www.w3.org/2000/svg" xmlns:sodipodi="http://sodipodi.sourceforge.net/DTD/sodipodi-0.dtd" xmlns:inkscape="http://www.inkscape.org/namespaces/inkscape" sodipodi:version="0.32" inkscape:version="0.46" sodipodi:docname="ADR_dimensions.svg" inkscape:output_extension="org.inkscape.output.svg.inkscape">
	<g>
		<path id="path167_1_" fill="#FF9A00" d="M402.027,9.525h-360v261h360V9.525z"/>
		<path d="M409.527,278.024h-375v-276h375V278.024z M49.527,263.024h345v-246h-345V263.024z"/>
	</g>
	<rect x="42.027" y="129.45" width="354.227" height="12"/>
	<polygon points="90.631,172.351 95.203,172.351 90.252,162.45 85.377,172.351 89.874,172.351 89.874,224.625 85.377,224.625 
		90.252,234.45 95.203,224.625 90.631,224.625 	"/>
	<polygon points="15.387,10.35 19.978,10.35 15.103,0.45 10.152,10.35 14.667,10.35 14.667,269.625 10.152,269.625 15.103,279.45 
		19.978,269.625 15.387,269.625 	"/>
	<polygon points="411.103,297.45 401.203,292.575 401.203,297.09 42.928,297.09 42.928,292.575 33.103,297.45 42.928,302.399 
		42.928,297.81 401.203,297.81 401.203,302.399 	"/>
	<path d="M33.027,0.09h-27c-0.199,0-0.36,0.161-0.36,0.36c0,0.199,0.161,0.36,0.36,0.36h27c0.199,0,0.36-0.161,0.36-0.36
		C33.387,0.251,33.226,0.09,33.027,0.09z"/>
	<path d="M33.027,279.09h-18c-0.199,0-0.36,0.161-0.36,0.36s0.161,0.359,0.36,0.359h17.64v17.641c0,0.199,0.161,0.359,0.36,0.359
		c0.199,0,0.36-0.16,0.36-0.359v-18C33.387,279.251,33.226,279.09,33.027,279.09z"/>
	<g enable-background="new    ">
		<path d="M171.423,88.489l14.115-1.713c0.449,3.599,1.661,6.349,3.632,8.251c1.972,1.902,4.359,2.854,7.161,2.854
			c3.01,0,5.543-1.142,7.602-3.425c2.058-2.283,3.088-5.361,3.088-9.236c0-3.667-0.986-6.572-2.958-8.718
			c-1.972-2.145-4.376-3.218-7.213-3.218c-1.868,0-4.1,0.363-6.694,1.09l1.609-11.883c3.944,0.104,6.954-0.753,9.029-2.569
			c2.076-1.815,3.113-4.229,3.113-7.238c0-2.561-0.761-4.601-2.283-6.124c-1.522-1.521-3.546-2.283-6.071-2.283
			c-2.491,0-4.618,0.865-6.383,2.595c-1.764,1.73-2.837,4.256-3.217,7.576l-13.44-2.283c0.934-4.601,2.343-8.276,4.229-11.026
			c1.885-2.751,4.515-4.912,7.888-6.487c3.373-1.573,7.152-2.36,11.338-2.36c7.161,0,12.903,2.283,17.228,6.85
			c3.563,3.736,5.346,7.957,5.346,12.661c0,6.678-3.65,12.005-10.95,15.983c4.359,0.934,7.844,3.027,10.456,6.278
			c2.612,3.253,3.918,7.18,3.918,11.78c0,6.677-2.438,12.367-7.316,17.072s-10.949,7.057-18.214,7.057
			c-6.885,0-12.593-1.979-17.125-5.941C174.779,100.069,172.15,94.889,171.423,88.489z"/>
	</g>
	<g enable-background="new    ">
		<path d="M224.519,88.489l14.114-1.713c0.449,3.599,1.661,6.349,3.632,8.251c1.973,1.902,4.359,2.854,7.162,2.854
			c3.01,0,5.543-1.142,7.602-3.425s3.088-5.361,3.088-9.236c0-3.667-0.986-6.572-2.957-8.718c-1.973-2.145-4.377-3.218-7.214-3.218
			c-1.868,0-4.1,0.363-6.694,1.09l1.609-11.883c3.943,0.104,6.953-0.753,9.029-2.569c2.074-1.815,3.113-4.229,3.113-7.238
			c0-2.561-0.762-4.601-2.283-6.124c-1.523-1.521-3.547-2.283-6.072-2.283c-2.49,0-4.617,0.865-6.383,2.595
			c-1.764,1.73-2.836,4.256-3.217,7.576l-13.439-2.283c0.934-4.601,2.343-8.276,4.229-11.026c1.885-2.751,4.515-4.912,7.888-6.487
			c3.373-1.573,7.152-2.36,11.339-2.36c7.16,0,12.901,2.283,17.229,6.85c3.563,3.736,5.344,7.957,5.344,12.661
			c0,6.678-3.65,12.005-10.949,15.983c4.359,0.934,7.844,3.027,10.457,6.278c2.611,3.253,3.918,7.18,3.918,11.78
			c0,6.677-2.439,12.367-7.316,17.072c-4.879,4.705-10.949,7.057-18.215,7.057c-6.885,0-12.593-1.979-17.125-5.941
			C227.874,100.069,225.245,94.889,224.519,88.489z"/>
	</g>
	<g enable-background="new    ">
		<path d="M151.652,234.717H137.07v-54.954c-5.328,4.982-11.606,8.666-18.836,11.055v-13.232c3.805-1.246,7.939-3.605,12.402-7.084
			c4.463-3.477,7.524-7.532,9.185-12.168h11.832L151.652,234.717L151.652,234.717z"/>
	</g>
	<g enable-background="new    ">
		<path d="M192.085,158.332c7.369,0,13.128,2.629,17.28,7.888c4.947,6.228,7.42,16.553,7.42,30.979
			c0,14.392-2.491,24.735-7.472,31.03c-4.117,5.189-9.859,7.783-17.228,7.783c-7.404,0-13.372-2.845-17.903-8.535
			c-4.533-5.69-6.798-15.836-6.798-30.436c0-14.322,2.491-24.631,7.472-30.928C178.973,160.926,184.716,158.332,192.085,158.332z
			 M192.085,170.423c-1.765,0-3.339,0.563-4.722,1.688c-1.384,1.123-2.457,3.139-3.218,6.045
			c-1.003,3.771-1.505,10.119-1.505,19.045c0,8.925,0.449,15.058,1.35,18.396c0.899,3.338,2.032,5.562,3.399,6.668
			c1.366,1.106,2.932,1.659,4.696,1.659s3.338-0.562,4.722-1.687c1.383-1.123,2.456-3.139,3.217-6.045
			c1.003-3.736,1.505-10.067,1.505-18.992c0-8.926-0.45-15.059-1.35-18.396c-0.9-3.338-2.033-5.568-3.399-6.693
			C195.414,170.985,193.849,170.423,192.085,170.423z"/>
	</g>
	<g enable-background="new    ">
		<path d="M233.037,193.67c-3.771-1.591-6.513-3.778-8.225-6.563c-1.712-2.784-2.569-5.838-2.569-9.158
			c0-5.674,1.98-10.361,5.941-14.063c3.961-3.701,9.592-5.552,16.892-5.552c7.229,0,12.843,1.851,16.839,5.552
			c3.996,3.702,5.994,8.39,5.994,14.063c0,3.527-0.918,6.668-2.752,9.418s-4.41,4.852-7.73,6.305
			c4.221,1.695,7.428,4.17,9.625,7.421c2.197,3.252,3.296,7.005,3.296,11.261c0,7.023-2.24,12.731-6.72,17.125
			c-4.48,4.394-10.439,6.59-17.877,6.59c-6.92,0-12.681-1.815-17.28-5.448c-5.432-4.289-8.147-10.171-8.147-17.644
			c0-4.117,1.021-7.896,3.063-11.339C225.427,198.192,228.644,195.538,233.037,193.67z M234.698,211.573
			c0,4.014,1.028,7.144,3.087,9.393c2.058,2.249,4.626,3.373,7.707,3.373c3.01,0,5.5-1.081,7.473-3.244
			c1.972-2.16,2.957-5.283,2.957-9.365c0-3.563-1.004-6.427-3.01-8.588c-2.007-2.162-4.55-3.244-7.627-3.244
			c-3.564,0-6.219,1.229-7.966,3.686S234.698,208.702,234.698,211.573z M236.047,178.983c0,2.906,0.821,5.174,2.465,6.799
			c1.643,1.627,3.831,2.439,6.564,2.439c2.767,0,4.981-0.822,6.642-2.466c1.66-1.644,2.49-3.918,2.49-6.823
			c0-2.732-0.82-4.922-2.465-6.564c-1.644-1.643-3.813-2.465-6.513-2.465c-2.802,0-5.033,0.83-6.693,2.49
			C236.878,174.054,236.047,176.252,236.047,178.983z"/>
	</g>
	<g enable-background="new    ">
		<path d="M286.132,193.67c-3.771-1.591-6.512-3.778-8.225-6.563c-1.714-2.784-2.568-5.838-2.568-9.158
			c0-5.674,1.979-10.361,5.94-14.063c3.962-3.701,9.591-5.552,16.892-5.552c7.229,0,12.844,1.851,16.838,5.552
			c3.996,3.702,5.994,8.39,5.994,14.063c0,3.527-0.916,6.668-2.75,9.418s-4.41,4.852-7.732,6.305c4.221,1.695,7.43,4.17,9.627,7.421
			c2.195,3.252,3.295,7.005,3.295,11.261c0,7.023-2.24,12.731-6.721,17.125s-10.438,6.59-17.876,6.59
			c-6.921,0-12.681-1.815-17.28-5.448c-5.432-4.289-8.146-10.171-8.146-17.644c0-4.117,1.021-7.896,3.062-11.339
			S281.738,195.538,286.132,193.67z M287.792,211.573c0,4.014,1.028,7.144,3.088,9.393c2.059,2.249,4.627,3.373,7.705,3.373
			c3.011,0,5.502-1.081,7.473-3.244c1.973-2.16,2.959-5.283,2.959-9.365c0-3.563-1.004-6.427-3.01-8.588
			c-2.008-2.162-4.551-3.244-7.629-3.244c-3.563,0-6.219,1.229-7.965,3.686C288.666,206.038,287.792,208.702,287.792,211.573z
			 M289.142,178.983c0,2.906,0.82,5.174,2.465,6.799c1.643,1.627,3.831,2.439,6.564,2.439c2.768,0,4.98-0.822,6.643-2.466
			c1.66-1.644,2.49-3.918,2.49-6.823c0-2.732-0.822-4.922-2.465-6.564c-1.645-1.643-3.814-2.465-6.512-2.465
			c-2.804,0-5.035,0.83-6.695,2.49S289.142,176.252,289.142,178.983z"/>
	</g>
	<path d="M333.027,108.09h-8.746l4.695-9.465h-4.59V46.35h4.59l-4.697-9.541h8.748c0.199,0,0.359-0.161,0.359-0.36
		c0-0.199-0.16-0.36-0.359-0.36h-18c-0.199,0-0.359,0.161-0.359,0.36c0,0.199,0.16,0.36,0.359,0.36h8.896l-4.771,9.541h4.516v52.274
		h-4.516l4.77,9.465h-8.895c-0.199,0-0.359,0.161-0.359,0.36c0,0.199,0.16,0.36,0.359,0.36h18c0.199,0,0.359-0.161,0.359-0.36
		C333.386,108.25,333.226,108.09,333.027,108.09z"/>
	<path d="M99.027,234.09h-18c-0.199,0-0.36,0.161-0.36,0.36s0.161,0.359,0.36,0.359h18c0.199,0,0.36-0.16,0.36-0.359
		S99.226,234.09,99.027,234.09z"/>
	<path d="M81.027,162.81h18c0.199,0,0.36-0.161,0.36-0.36c0-0.199-0.161-0.36-0.36-0.36h-18c-0.199,0-0.36,0.161-0.36,0.36
		C80.667,162.649,80.829,162.81,81.027,162.81z"/>
	<path d="M438.027,135.09h-27c-0.197,0-0.359,0.161-0.359,0.36c0,0.199,0.162,0.36,0.359,0.36h27c0.197,0,0.359-0.161,0.359-0.36
		C438.386,135.251,438.226,135.09,438.027,135.09z"/>
</g>
<g id="Layer_3_1_">
	<polygon points="428.667,145.71 424.078,145.71 428.953,135.81 433.902,145.71 429.388,145.71 429.388,269.625 433.902,269.625 
		428.953,279.45 424.078,269.625 428.667,269.625 	"/>
	<path d="M411.027,279.09h18c0.197,0,0.359,0.161,0.359,0.36s-0.162,0.359-0.359,0.359h-17.641v17.641
		c0,0.199-0.162,0.359-0.359,0.359s-0.359-0.16-0.359-0.359v-18C410.667,279.251,410.83,279.09,411.027,279.09z"/>
</g>
<g>
	<g>
		<path d="M-34.275,132.811l1.594-0.193c0.051,0.406,0.188,0.717,0.41,0.932s0.492,0.322,0.809,0.322
			c0.34,0,0.626-0.129,0.858-0.387s0.349-0.605,0.349-1.043c0-0.414-0.111-0.742-0.334-0.984s-0.494-0.363-0.814-0.363
			c-0.211,0-0.463,0.041-0.756,0.123l0.182-1.342c0.445,0.012,0.785-0.085,1.02-0.29s0.352-0.478,0.352-0.817
			c0-0.289-0.086-0.52-0.258-0.691s-0.4-0.258-0.686-0.258c-0.281,0-0.521,0.098-0.721,0.293s-0.32,0.48-0.363,0.855l-1.518-0.258
			c0.105-0.52,0.265-0.935,0.478-1.245s0.51-0.555,0.891-0.732s0.808-0.267,1.28-0.267c0.809,0,1.457,0.258,1.945,0.773
			c0.402,0.422,0.604,0.898,0.604,1.43c0,0.754-0.412,1.355-1.236,1.805c0.492,0.105,0.886,0.342,1.181,0.709
			s0.442,0.811,0.442,1.33c0,0.754-0.275,1.396-0.826,1.928s-1.236,0.797-2.057,0.797c-0.777,0-1.422-0.224-1.934-0.671
			S-34.193,133.533-34.275,132.811z"/>
		<path d="M-24.759,126.465c0.832,0,1.482,0.297,1.951,0.891c0.559,0.703,0.838,1.869,0.838,3.498c0,1.625-0.281,2.793-0.844,3.504
			c-0.465,0.586-1.113,0.879-1.945,0.879c-0.836,0-1.51-0.321-2.021-0.964s-0.768-1.788-0.768-3.437
			c0-1.617,0.281-2.781,0.844-3.492C-26.24,126.758-25.591,126.465-24.759,126.465z M-24.759,127.83
			c-0.199,0-0.377,0.063-0.533,0.19s-0.277,0.354-0.363,0.683c-0.113,0.426-0.17,1.143-0.17,2.15s0.051,1.7,0.152,2.077
			s0.229,0.628,0.384,0.753s0.331,0.188,0.53,0.188s0.377-0.063,0.533-0.19s0.277-0.354,0.363-0.683
			c0.113-0.422,0.17-1.137,0.17-2.145s-0.051-1.7-0.152-2.077s-0.229-0.629-0.384-0.756S-24.56,127.83-24.759,127.83z"/>
		<path d="M-11.757,130.707L-13.38,131c-0.055-0.324-0.179-0.568-0.372-0.732s-0.444-0.246-0.753-0.246
			c-0.41,0-0.737,0.142-0.981,0.425s-0.366,0.757-0.366,1.421c0,0.738,0.124,1.26,0.372,1.564s0.581,0.457,0.999,0.457
			c0.313,0,0.568-0.089,0.768-0.267s0.34-0.483,0.422-0.917l1.617,0.275c-0.168,0.742-0.49,1.303-0.967,1.682
			s-1.115,0.568-1.916,0.568c-0.91,0-1.636-0.287-2.177-0.861s-0.812-1.369-0.812-2.385c0-1.027,0.271-1.827,0.814-2.399
			s1.277-0.858,2.203-0.858c0.758,0,1.36,0.163,1.808,0.489S-11.953,130.039-11.757,130.707z"/>
		<path d="M-10.632,128.867h1.518v0.85c0.543-0.66,1.189-0.99,1.939-0.99c0.398,0,0.744,0.082,1.037,0.246s0.533,0.412,0.721,0.744
			c0.273-0.332,0.568-0.58,0.885-0.744s0.654-0.246,1.014-0.246c0.457,0,0.844,0.093,1.16,0.278s0.553,0.458,0.709,0.817
			c0.113,0.266,0.17,0.695,0.17,1.289v3.979h-1.646v-3.557c0-0.617-0.057-1.016-0.17-1.195c-0.152-0.234-0.387-0.352-0.703-0.352
			c-0.23,0-0.447,0.07-0.65,0.211s-0.35,0.347-0.439,0.618s-0.135,0.7-0.135,1.286v2.988h-1.646v-3.41
			c0-0.605-0.029-0.996-0.088-1.172s-0.149-0.307-0.272-0.393s-0.29-0.129-0.501-0.129c-0.254,0-0.482,0.068-0.686,0.205
			s-0.349,0.334-0.437,0.592s-0.132,0.686-0.132,1.283v3.023h-1.646V128.867z"/>
		<path d="M-40.465,152.015h-1.131c-0.598-0.902-1.053-1.84-1.365-2.813s-0.469-1.914-0.469-2.824c0-1.129,0.193-2.197,0.58-3.205
			c0.336-0.875,0.762-1.682,1.277-2.42h1.125c-0.535,1.184-0.903,2.19-1.104,3.021s-0.302,1.71-0.302,2.64
			c0,0.641,0.06,1.297,0.179,1.969s0.282,1.311,0.489,1.916C-41.049,150.697-40.809,151.269-40.465,152.015z"/>
		<path d="M-39.61,147.21l1.594-0.193c0.051,0.406,0.188,0.717,0.41,0.932s0.492,0.322,0.809,0.322c0.34,0,0.626-0.129,0.858-0.387
			s0.349-0.605,0.349-1.043c0-0.414-0.111-0.742-0.334-0.984s-0.494-0.363-0.814-0.363c-0.211,0-0.463,0.041-0.756,0.123
			l0.182-1.342c0.445,0.012,0.785-0.085,1.02-0.29s0.352-0.478,0.352-0.817c0-0.289-0.086-0.52-0.258-0.691s-0.4-0.258-0.686-0.258
			c-0.281,0-0.521,0.098-0.721,0.293s-0.32,0.48-0.363,0.855l-1.518-0.258c0.105-0.52,0.265-0.935,0.478-1.245
			s0.51-0.555,0.891-0.732s0.808-0.267,1.28-0.267c0.809,0,1.457,0.258,1.945,0.773c0.402,0.422,0.604,0.898,0.604,1.43
			c0,0.754-0.412,1.355-1.236,1.805c0.492,0.105,0.886,0.342,1.181,0.709s0.442,0.811,0.442,1.33c0,0.754-0.275,1.396-0.826,1.928
			s-1.236,0.797-2.057,0.797c-0.777,0-1.422-0.224-1.934-0.671S-39.528,147.933-39.61,147.21z"/>
		<path d="M-30.094,140.865c0.832,0,1.482,0.297,1.951,0.891c0.559,0.703,0.838,1.869,0.838,3.498c0,1.625-0.281,2.793-0.844,3.504
			c-0.465,0.586-1.113,0.879-1.945,0.879c-0.836,0-1.51-0.321-2.021-0.964s-0.768-1.788-0.768-3.437
			c0-1.617,0.281-2.781,0.844-3.492C-31.575,141.158-30.926,140.865-30.094,140.865z M-30.094,142.23
			c-0.199,0-0.377,0.063-0.533,0.19s-0.277,0.354-0.363,0.683c-0.113,0.426-0.17,1.143-0.17,2.15s0.051,1.7,0.152,2.077
			s0.229,0.628,0.384,0.753s0.331,0.188,0.53,0.188s0.377-0.063,0.533-0.19s0.277-0.354,0.363-0.683
			c0.113-0.422,0.17-1.137,0.17-2.145s-0.051-1.7-0.152-2.077s-0.229-0.629-0.384-0.756S-29.895,142.23-30.094,142.23z"/>
		<path d="M-23.42,140.865c0.832,0,1.482,0.297,1.951,0.891c0.559,0.703,0.838,1.869,0.838,3.498c0,1.625-0.281,2.793-0.844,3.504
			c-0.465,0.586-1.113,0.879-1.945,0.879c-0.836,0-1.51-0.321-2.021-0.964s-0.768-1.788-0.768-3.437
			c0-1.617,0.281-2.781,0.844-3.492C-24.901,141.158-24.252,140.865-23.42,140.865z M-23.42,142.23c-0.199,0-0.377,0.063-0.533,0.19
			s-0.277,0.354-0.363,0.683c-0.113,0.426-0.17,1.143-0.17,2.15s0.051,1.7,0.152,2.077s0.229,0.628,0.384,0.753
			s0.331,0.188,0.53,0.188s0.377-0.063,0.533-0.19s0.277-0.354,0.363-0.683c0.113-0.422,0.17-1.137,0.17-2.145
			s-0.051-1.7-0.152-2.077s-0.229-0.629-0.384-0.756S-23.221,142.23-23.42,142.23z"/>
		<path d="M-15.967,143.267h1.518v0.85c0.543-0.66,1.189-0.99,1.939-0.99c0.398,0,0.744,0.082,1.037,0.246s0.533,0.412,0.721,0.744
			c0.273-0.332,0.568-0.58,0.885-0.744s0.654-0.246,1.014-0.246c0.457,0,0.844,0.093,1.16,0.278s0.553,0.458,0.709,0.817
			c0.113,0.266,0.17,0.695,0.17,1.289v3.979h-1.646v-3.557c0-0.617-0.057-1.016-0.17-1.195c-0.152-0.234-0.387-0.352-0.703-0.352
			c-0.23,0-0.447,0.07-0.65,0.211s-0.35,0.347-0.439,0.618s-0.135,0.7-0.135,1.286v2.988h-1.646v-3.41
			c0-0.605-0.029-0.996-0.088-1.172s-0.149-0.307-0.272-0.393s-0.29-0.129-0.501-0.129c-0.254,0-0.482,0.068-0.686,0.205
			s-0.349,0.334-0.437,0.592s-0.132,0.686-0.132,1.283v3.023h-1.646V143.267z"/>
		<path d="M-5.297,143.267h1.518v0.85c0.543-0.66,1.189-0.99,1.939-0.99c0.398,0,0.744,0.082,1.037,0.246s0.533,0.412,0.721,0.744
			c0.273-0.332,0.568-0.58,0.885-0.744s0.654-0.246,1.014-0.246c0.457,0,0.844,0.093,1.16,0.278s0.553,0.458,0.709,0.817
			c0.113,0.266,0.17,0.695,0.17,1.289v3.979H2.208v-3.557c0-0.617-0.057-1.016-0.17-1.195c-0.152-0.234-0.387-0.352-0.703-0.352
			c-0.23,0-0.447,0.07-0.65,0.211s-0.35,0.347-0.439,0.618s-0.135,0.7-0.135,1.286v2.988h-1.646v-3.41
			c0-0.605-0.029-0.996-0.088-1.172s-0.149-0.307-0.272-0.393s-0.29-0.129-0.501-0.129c-0.254,0-0.482,0.068-0.686,0.205
			s-0.349,0.334-0.437,0.592s-0.132,0.686-0.132,1.283v3.023h-1.646V143.267z"/>
		<path d="M5.039,152.015c0.324-0.695,0.553-1.229,0.686-1.6s0.256-0.799,0.369-1.283s0.197-0.944,0.252-1.38
			s0.082-0.882,0.082-1.339c0-0.93-0.1-1.81-0.299-2.64s-0.566-1.837-1.102-3.021h1.119c0.59,0.84,1.048,1.73,1.374,2.672
			s0.489,1.896,0.489,2.865c0,0.816-0.129,1.691-0.387,2.625c-0.293,1.047-0.775,2.08-1.447,3.1H5.039z"/>
		<path d="M-31.791,166.415h-1.131c-0.598-0.902-1.053-1.84-1.365-2.813s-0.469-1.914-0.469-2.824c0-1.129,0.193-2.197,0.58-3.205
			c0.336-0.875,0.762-1.682,1.277-2.42h1.125c-0.535,1.184-0.903,2.19-1.104,3.021s-0.302,1.71-0.302,2.64
			c0,0.641,0.06,1.297,0.179,1.969s0.282,1.311,0.489,1.916C-32.375,165.097-32.134,165.669-31.791,166.415z"/>
		<path d="M-26.664,163.89h-1.646v-6.205c-0.602,0.563-1.311,0.979-2.127,1.248v-1.494c0.43-0.141,0.896-0.407,1.4-0.8
			s0.85-0.851,1.037-1.374h1.336V163.89z"/>
		<path d="M-18.642,162.36v1.529h-5.771c0.063-0.578,0.25-1.126,0.563-1.644s0.93-1.204,1.852-2.06
			c0.742-0.691,1.197-1.16,1.365-1.406c0.227-0.34,0.34-0.676,0.34-1.008c0-0.367-0.099-0.649-0.296-0.847s-0.47-0.296-0.817-0.296
			c-0.344,0-0.617,0.104-0.82,0.311s-0.32,0.551-0.352,1.031l-1.641-0.164c0.098-0.906,0.404-1.557,0.92-1.951
			s1.16-0.592,1.934-0.592c0.848,0,1.514,0.229,1.998,0.686s0.727,1.025,0.727,1.705c0,0.387-0.069,0.755-0.208,1.104
			s-0.358,0.716-0.659,1.099c-0.199,0.254-0.559,0.619-1.078,1.096s-0.849,0.793-0.987,0.949s-0.251,0.309-0.337,0.457H-18.642z"/>
		<path d="M-13.884,163.89v-8.59h1.734v8.59H-13.884z"/>
		<path d="M-4.849,163.89h-1.646v-3.176c0-0.672-0.035-1.106-0.105-1.304s-0.185-0.351-0.343-0.46s-0.349-0.164-0.571-0.164
			c-0.285,0-0.541,0.078-0.768,0.234s-0.382,0.363-0.466,0.621s-0.126,0.734-0.126,1.43v2.818h-1.646v-6.223h1.529v0.914
			c0.543-0.703,1.227-1.055,2.051-1.055c0.363,0,0.695,0.065,0.996,0.196s0.528,0.298,0.683,0.501s0.262,0.434,0.322,0.691
			s0.091,0.627,0.091,1.107V163.89z"/>
		<path d="M-3.636,166.415c0.324-0.695,0.553-1.229,0.686-1.6s0.256-0.799,0.369-1.283s0.197-0.944,0.252-1.38
			s0.082-0.882,0.082-1.339c0-0.93-0.1-1.81-0.299-2.64s-0.566-1.837-1.102-3.021h1.119c0.59,0.84,1.048,1.73,1.374,2.672
			s0.489,1.896,0.489,2.865c0,0.816-0.129,1.691-0.387,2.625c-0.293,1.047-0.775,2.08-1.447,3.1H-3.636z"/>
	</g>
	<g>
		<path d="M158.519,292.575v-1.729h-3.516v-1.441l3.727-5.455h1.383v5.449h1.066v1.447h-1.066v1.729H158.519z M158.519,289.399
			v-2.936l-1.975,2.936H158.519z"/>
		<path d="M164.748,283.95c0.832,0,1.482,0.297,1.951,0.891c0.559,0.703,0.838,1.869,0.838,3.498c0,1.625-0.281,2.793-0.844,3.504
			c-0.465,0.586-1.113,0.879-1.945,0.879c-0.836,0-1.51-0.321-2.021-0.964s-0.768-1.788-0.768-3.437
			c0-1.617,0.281-2.781,0.844-3.492C163.267,284.243,163.916,283.95,164.748,283.95z M164.748,285.315
			c-0.199,0-0.377,0.063-0.533,0.19s-0.277,0.354-0.363,0.683c-0.113,0.426-0.17,1.143-0.17,2.15s0.051,1.7,0.152,2.077
			s0.229,0.628,0.384,0.753s0.331,0.188,0.53,0.188s0.377-0.063,0.533-0.19s0.277-0.354,0.363-0.683
			c0.113-0.422,0.17-1.137,0.17-2.145s-0.051-1.7-0.152-2.077s-0.229-0.629-0.384-0.756S164.947,285.315,164.748,285.315z"/>
		<path d="M177.75,288.192l-1.623,0.293c-0.055-0.324-0.179-0.568-0.372-0.732s-0.444-0.246-0.753-0.246
			c-0.41,0-0.737,0.142-0.981,0.425s-0.366,0.757-0.366,1.421c0,0.738,0.124,1.26,0.372,1.564s0.581,0.457,0.999,0.457
			c0.313,0,0.568-0.089,0.768-0.267s0.34-0.483,0.422-0.917l1.617,0.275c-0.168,0.742-0.49,1.303-0.967,1.682
			s-1.115,0.568-1.916,0.568c-0.91,0-1.636-0.287-2.177-0.861s-0.812-1.369-0.812-2.385c0-1.027,0.271-1.827,0.814-2.399
			s1.277-0.858,2.203-0.858c0.758,0,1.36,0.163,1.808,0.489S177.554,287.524,177.75,288.192z"/>
		<path d="M178.875,286.353h1.518v0.85c0.543-0.66,1.189-0.99,1.939-0.99c0.398,0,0.744,0.082,1.037,0.246s0.533,0.412,0.721,0.744
			c0.273-0.332,0.568-0.58,0.885-0.744s0.654-0.246,1.014-0.246c0.457,0,0.844,0.093,1.16,0.278s0.553,0.458,0.709,0.817
			c0.113,0.266,0.17,0.695,0.17,1.289v3.979h-1.646v-3.557c0-0.617-0.057-1.016-0.17-1.195c-0.152-0.234-0.387-0.352-0.703-0.352
			c-0.23,0-0.447,0.07-0.65,0.211s-0.35,0.347-0.439,0.618s-0.135,0.7-0.135,1.286v2.988h-1.646v-3.41
			c0-0.605-0.029-0.996-0.088-1.172s-0.149-0.307-0.272-0.393s-0.29-0.129-0.501-0.129c-0.254,0-0.482,0.068-0.686,0.205
			s-0.349,0.334-0.437,0.592s-0.132,0.686-0.132,1.283v3.023h-1.646V286.353z"/>
		<path d="M195.732,295.101h-1.131c-0.598-0.902-1.053-1.84-1.365-2.813s-0.469-1.914-0.469-2.824c0-1.129,0.193-2.197,0.58-3.205
			c0.336-0.875,0.762-1.682,1.277-2.42h1.125c-0.535,1.184-0.903,2.19-1.104,3.021s-0.302,1.71-0.302,2.64
			c0,0.641,0.06,1.297,0.179,1.969s0.282,1.311,0.489,1.916C195.148,293.782,195.388,294.354,195.732,295.101z"/>
		<path d="M199.875,292.575v-1.729h-3.516v-1.441l3.727-5.455h1.383v5.449h1.066v1.447h-1.066v1.729H199.875z M199.875,289.399
			v-2.936l-1.975,2.936H199.875z"/>
		<path d="M206.103,283.95c0.832,0,1.482,0.297,1.951,0.891c0.559,0.703,0.838,1.869,0.838,3.498c0,1.625-0.281,2.793-0.844,3.504
			c-0.465,0.586-1.113,0.879-1.945,0.879c-0.836,0-1.51-0.321-2.021-0.964s-0.768-1.788-0.768-3.437
			c0-1.617,0.281-2.781,0.844-3.492C204.623,284.243,205.271,283.95,206.103,283.95z M206.103,285.315
			c-0.199,0-0.377,0.063-0.533,0.19s-0.277,0.354-0.363,0.683c-0.113,0.426-0.17,1.143-0.17,2.15s0.051,1.7,0.152,2.077
			s0.229,0.628,0.384,0.753s0.331,0.188,0.53,0.188s0.377-0.063,0.533-0.19s0.277-0.354,0.363-0.683
			c0.113-0.422,0.17-1.137,0.17-2.145s-0.051-1.7-0.152-2.077s-0.229-0.629-0.384-0.756S206.302,285.315,206.103,285.315z"/>
		<path d="M212.777,283.95c0.832,0,1.482,0.297,1.951,0.891c0.559,0.703,0.838,1.869,0.838,3.498c0,1.625-0.281,2.793-0.844,3.504
			c-0.465,0.586-1.113,0.879-1.945,0.879c-0.836,0-1.51-0.321-2.021-0.964s-0.768-1.788-0.768-3.437
			c0-1.617,0.281-2.781,0.844-3.492C211.296,284.243,211.945,283.95,212.777,283.95z M212.777,285.315
			c-0.199,0-0.377,0.063-0.533,0.19s-0.277,0.354-0.363,0.683c-0.113,0.426-0.17,1.143-0.17,2.15s0.051,1.7,0.152,2.077
			s0.229,0.628,0.384,0.753s0.331,0.188,0.53,0.188s0.377-0.063,0.533-0.19s0.277-0.354,0.363-0.683
			c0.113-0.422,0.17-1.137,0.17-2.145s-0.051-1.7-0.152-2.077s-0.229-0.629-0.384-0.756S212.976,285.315,212.777,285.315z"/>
		<path d="M220.23,286.353h1.518v0.85c0.543-0.66,1.189-0.99,1.939-0.99c0.398,0,0.744,0.082,1.037,0.246s0.533,0.412,0.721,0.744
			c0.273-0.332,0.568-0.58,0.885-0.744s0.654-0.246,1.014-0.246c0.457,0,0.844,0.093,1.16,0.278s0.553,0.458,0.709,0.817
			c0.113,0.266,0.17,0.695,0.17,1.289v3.979h-1.646v-3.557c0-0.617-0.057-1.016-0.17-1.195c-0.152-0.234-0.387-0.352-0.703-0.352
			c-0.23,0-0.447,0.07-0.65,0.211s-0.35,0.347-0.439,0.618s-0.135,0.7-0.135,1.286v2.988h-1.646v-3.41
			c0-0.605-0.029-0.996-0.088-1.172s-0.149-0.307-0.272-0.393s-0.29-0.129-0.501-0.129c-0.254,0-0.482,0.068-0.686,0.205
			s-0.349,0.334-0.437,0.592s-0.132,0.686-0.132,1.283v3.023h-1.646V286.353z"/>
		<path d="M230.9,286.353h1.518v0.85c0.543-0.66,1.189-0.99,1.939-0.99c0.398,0,0.744,0.082,1.037,0.246s0.533,0.412,0.721,0.744
			c0.273-0.332,0.568-0.58,0.885-0.744s0.654-0.246,1.014-0.246c0.457,0,0.844,0.093,1.16,0.278s0.553,0.458,0.709,0.817
			c0.113,0.266,0.17,0.695,0.17,1.289v3.979h-1.646v-3.557c0-0.617-0.057-1.016-0.17-1.195c-0.152-0.234-0.387-0.352-0.703-0.352
			c-0.23,0-0.447,0.07-0.65,0.211s-0.35,0.347-0.439,0.618s-0.135,0.7-0.135,1.286v2.988h-1.646v-3.41
			c0-0.605-0.029-0.996-0.088-1.172s-0.149-0.307-0.272-0.393s-0.29-0.129-0.501-0.129c-0.254,0-0.482,0.068-0.686,0.205
			s-0.349,0.334-0.437,0.592s-0.132,0.686-0.132,1.283v3.023H230.9V286.353z"/>
		<path d="M241.236,295.101c0.324-0.695,0.553-1.229,0.686-1.6s0.256-0.799,0.369-1.283s0.197-0.944,0.252-1.38
			s0.082-0.882,0.082-1.339c0-0.93-0.1-1.81-0.299-2.64s-0.566-1.837-1.102-3.021h1.119c0.59,0.84,1.048,1.73,1.374,2.672
			s0.489,1.896,0.489,2.865c0,0.816-0.129,1.691-0.387,2.625c-0.293,1.047-0.775,2.08-1.447,3.1H241.236z"/>
		<path d="M251.753,295.101h-1.131c-0.598-0.902-1.053-1.84-1.365-2.813s-0.469-1.914-0.469-2.824c0-1.129,0.193-2.197,0.58-3.205
			c0.336-0.875,0.762-1.682,1.277-2.42h1.125c-0.535,1.184-0.903,2.19-1.104,3.021s-0.302,1.71-0.302,2.64
			c0,0.641,0.06,1.297,0.179,1.969s0.282,1.311,0.489,1.916C251.169,293.782,251.41,294.354,251.753,295.101z"/>
		<path d="M256.88,292.575h-1.646v-6.205c-0.602,0.563-1.311,0.979-2.127,1.248v-1.494c0.43-0.141,0.896-0.407,1.4-0.8
			s0.85-0.851,1.037-1.374h1.336V292.575z"/>
		<path d="M264.919,286.089l-1.594,0.176c-0.039-0.328-0.141-0.57-0.305-0.727s-0.377-0.234-0.639-0.234
			c-0.348,0-0.642,0.156-0.882,0.469s-0.392,0.963-0.454,1.951c0.41-0.484,0.92-0.727,1.529-0.727c0.688,0,1.276,0.262,1.767,0.785
			s0.735,1.199,0.735,2.027c0,0.879-0.258,1.584-0.773,2.115s-1.178,0.797-1.986,0.797c-0.867,0-1.58-0.337-2.139-1.011
			s-0.838-1.778-0.838-3.313c0-1.574,0.291-2.709,0.873-3.404s1.338-1.043,2.268-1.043c0.652,0,1.192,0.183,1.62,0.548
			S264.802,285.394,264.919,286.089z M261.187,289.681c0,0.535,0.123,0.948,0.369,1.239s0.527,0.437,0.844,0.437
			c0.305,0,0.559-0.119,0.762-0.357s0.305-0.629,0.305-1.172c0-0.559-0.109-0.968-0.328-1.228s-0.492-0.39-0.82-0.39
			c-0.316,0-0.584,0.124-0.803,0.372S261.187,289.196,261.187,289.681z"/>
		<path d="M269.66,292.575v-8.59h1.734v8.59H269.66z"/>
		<path d="M278.695,292.575h-1.646v-3.176c0-0.672-0.035-1.106-0.105-1.304s-0.185-0.351-0.343-0.46s-0.349-0.164-0.571-0.164
			c-0.285,0-0.541,0.078-0.768,0.234s-0.382,0.363-0.466,0.621s-0.126,0.734-0.126,1.43v2.818h-1.646v-6.223h1.529v0.914
			c0.543-0.703,1.227-1.055,2.051-1.055c0.363,0,0.695,0.065,0.996,0.196s0.528,0.298,0.683,0.501s0.262,0.434,0.322,0.691
			s0.091,0.627,0.091,1.107V292.575z"/>
		<path d="M279.908,295.101c0.324-0.695,0.553-1.229,0.686-1.6s0.256-0.799,0.369-1.283s0.197-0.944,0.252-1.38
			s0.082-0.882,0.082-1.339c0-0.93-0.1-1.81-0.299-2.64s-0.566-1.837-1.102-3.021h1.119c0.59,0.84,1.048,1.73,1.374,2.672
			s0.489,1.896,0.489,2.865c0,0.816-0.129,1.691-0.387,2.625c-0.293,1.047-0.775,2.08-1.447,3.1H279.908z"/>
	</g>
	<g>
		<path d="M449.635,196.524h-1.646v-6.205c-0.602,0.563-1.311,0.979-2.127,1.248v-1.494c0.43-0.141,0.896-0.407,1.4-0.8
			s0.85-0.851,1.037-1.374h1.336V196.524z"/>
		<path d="M452.12,194.315l1.641-0.17c0.047,0.371,0.186,0.665,0.416,0.882s0.496,0.325,0.797,0.325c0.344,0,0.635-0.14,0.873-0.419
			s0.357-0.7,0.357-1.263c0-0.527-0.118-0.923-0.354-1.187s-0.544-0.396-0.923-0.396c-0.473,0-0.896,0.209-1.271,0.627l-1.336-0.193
			l0.844-4.471h4.354v1.541h-3.105l-0.258,1.459c0.367-0.184,0.742-0.275,1.125-0.275c0.73,0,1.35,0.266,1.857,0.797
			s0.762,1.221,0.762,2.068c0,0.707-0.205,1.338-0.615,1.893c-0.559,0.758-1.334,1.137-2.326,1.137
			c-0.793,0-1.439-0.213-1.939-0.639S452.217,195.034,452.12,194.315z"/>
		<path d="M467.881,192.142l-1.623,0.293c-0.055-0.324-0.179-0.568-0.372-0.732s-0.444-0.246-0.753-0.246
			c-0.41,0-0.737,0.142-0.981,0.425s-0.366,0.757-0.366,1.421c0,0.738,0.124,1.26,0.372,1.564s0.581,0.457,0.999,0.457
			c0.313,0,0.568-0.089,0.768-0.267s0.34-0.483,0.422-0.917l1.617,0.275c-0.168,0.742-0.49,1.303-0.967,1.682
			s-1.115,0.568-1.916,0.568c-0.91,0-1.636-0.287-2.177-0.861s-0.812-1.369-0.812-2.385c0-1.027,0.271-1.827,0.814-2.399
			s1.277-0.858,2.203-0.858c0.758,0,1.36,0.163,1.808,0.489S467.686,191.474,467.881,192.142z"/>
		<path d="M469.006,190.302h1.518v0.85c0.543-0.66,1.189-0.99,1.939-0.99c0.398,0,0.744,0.082,1.037,0.246s0.533,0.412,0.721,0.744
			c0.273-0.332,0.568-0.58,0.885-0.744s0.654-0.246,1.014-0.246c0.457,0,0.844,0.093,1.16,0.278s0.553,0.458,0.709,0.817
			c0.113,0.266,0.17,0.695,0.17,1.289v3.979h-1.646v-3.557c0-0.617-0.057-1.016-0.17-1.195c-0.152-0.234-0.387-0.352-0.703-0.352
			c-0.23,0-0.447,0.07-0.65,0.211s-0.35,0.347-0.439,0.618s-0.135,0.7-0.135,1.286v2.988h-1.646v-3.41
			c0-0.605-0.029-0.996-0.088-1.172s-0.149-0.307-0.272-0.393s-0.29-0.129-0.501-0.129c-0.254,0-0.482,0.068-0.686,0.205
			s-0.349,0.334-0.437,0.592s-0.132,0.686-0.132,1.283v3.023h-1.646V190.302z"/>
		<path d="M439.173,213.45h-1.131c-0.598-0.902-1.053-1.84-1.365-2.813s-0.469-1.914-0.469-2.824c0-1.129,0.193-2.197,0.58-3.205
			c0.336-0.875,0.762-1.682,1.277-2.42h1.125c-0.535,1.184-0.903,2.189-1.104,3.02s-0.302,1.711-0.302,2.641
			c0,0.641,0.06,1.297,0.179,1.969s0.282,1.311,0.489,1.916C438.589,212.132,438.83,212.704,439.173,213.45z"/>
		<path d="M444.3,210.925h-1.646v-6.205c-0.602,0.563-1.311,0.979-2.127,1.248v-1.494c0.43-0.141,0.896-0.408,1.4-0.801
			s0.85-0.85,1.037-1.373h1.336V210.925z"/>
		<path d="M446.785,208.716l1.641-0.17c0.047,0.371,0.186,0.664,0.416,0.881s0.496,0.326,0.797,0.326
			c0.344,0,0.635-0.141,0.873-0.42s0.357-0.699,0.357-1.262c0-0.527-0.118-0.924-0.354-1.188s-0.544-0.395-0.923-0.395
			c-0.473,0-0.896,0.209-1.271,0.627l-1.336-0.193l0.844-4.471h4.354v1.541h-3.105l-0.258,1.459
			c0.367-0.184,0.742-0.275,1.125-0.275c0.73,0,1.35,0.266,1.857,0.797s0.762,1.221,0.762,2.068c0,0.707-0.205,1.338-0.615,1.893
			c-0.559,0.758-1.334,1.137-2.326,1.137c-0.793,0-1.439-0.213-1.939-0.639S446.882,209.435,446.785,208.716z"/>
		<path d="M456.218,202.3c0.832,0,1.482,0.297,1.951,0.891c0.559,0.703,0.838,1.869,0.838,3.498c0,1.625-0.281,2.793-0.844,3.504
			c-0.465,0.586-1.113,0.879-1.945,0.879c-0.836,0-1.51-0.322-2.021-0.965s-0.768-1.787-0.768-3.436
			c0-1.617,0.281-2.781,0.844-3.492C454.738,202.593,455.386,202.3,456.218,202.3z M456.218,203.665
			c-0.199,0-0.377,0.063-0.533,0.189s-0.277,0.355-0.363,0.684c-0.113,0.426-0.17,1.143-0.17,2.15s0.051,1.699,0.152,2.076
			s0.229,0.629,0.384,0.754s0.331,0.188,0.53,0.188s0.377-0.064,0.533-0.191s0.277-0.354,0.363-0.682
			c0.113-0.422,0.17-1.137,0.17-2.145s-0.051-1.701-0.152-2.078s-0.229-0.629-0.384-0.756S456.417,203.665,456.218,203.665z"/>
		<path d="M463.671,204.702h1.518v0.85c0.543-0.66,1.189-0.99,1.939-0.99c0.398,0,0.744,0.082,1.037,0.246s0.533,0.412,0.721,0.744
			c0.273-0.332,0.568-0.58,0.885-0.744s0.654-0.246,1.014-0.246c0.457,0,0.844,0.092,1.16,0.277s0.553,0.459,0.709,0.818
			c0.113,0.266,0.17,0.695,0.17,1.289v3.979h-1.646v-3.557c0-0.617-0.057-1.016-0.17-1.195c-0.152-0.234-0.387-0.352-0.703-0.352
			c-0.23,0-0.447,0.07-0.65,0.211s-0.35,0.346-0.439,0.617s-0.135,0.701-0.135,1.287v2.988h-1.646v-3.41
			c0-0.605-0.029-0.996-0.088-1.172s-0.149-0.307-0.272-0.393s-0.29-0.129-0.501-0.129c-0.254,0-0.482,0.068-0.686,0.205
			s-0.349,0.334-0.437,0.592s-0.132,0.686-0.132,1.283v3.023h-1.646V204.702z"/>
		<path d="M474.341,204.702h1.518v0.85c0.543-0.66,1.189-0.99,1.939-0.99c0.398,0,0.744,0.082,1.037,0.246s0.533,0.412,0.721,0.744
			c0.273-0.332,0.568-0.58,0.885-0.744s0.654-0.246,1.014-0.246c0.457,0,0.844,0.092,1.16,0.277s0.553,0.459,0.709,0.818
			c0.113,0.266,0.17,0.695,0.17,1.289v3.979h-1.646v-3.557c0-0.617-0.057-1.016-0.17-1.195c-0.152-0.234-0.387-0.352-0.703-0.352
			c-0.23,0-0.447,0.07-0.65,0.211s-0.35,0.346-0.439,0.617s-0.135,0.701-0.135,1.287v2.988h-1.646v-3.41
			c0-0.605-0.029-0.996-0.088-1.172s-0.149-0.307-0.272-0.393s-0.29-0.129-0.501-0.129c-0.254,0-0.482,0.068-0.686,0.205
			s-0.349,0.334-0.437,0.592s-0.132,0.686-0.132,1.283v3.023h-1.646V204.702z"/>
		<path d="M484.677,213.45c0.324-0.695,0.553-1.229,0.686-1.6s0.256-0.799,0.369-1.283s0.197-0.945,0.252-1.381
			s0.082-0.881,0.082-1.338c0-0.93-0.1-1.811-0.299-2.641s-0.566-1.836-1.102-3.02h1.119c0.59,0.84,1.048,1.73,1.374,2.672
			s0.489,1.896,0.489,2.865c0,0.816-0.129,1.691-0.387,2.625c-0.293,1.047-0.775,2.08-1.447,3.1H484.677z"/>
		<path d="M445.121,223.115l1.641-0.17c0.047,0.371,0.186,0.665,0.416,0.882s0.496,0.325,0.797,0.325
			c0.344,0,0.635-0.14,0.873-0.419s0.357-0.7,0.357-1.263c0-0.527-0.118-0.923-0.354-1.187s-0.544-0.396-0.923-0.396
			c-0.473,0-0.896,0.209-1.271,0.627l-1.336-0.193l0.844-4.471h4.354v1.541h-3.105l-0.258,1.459
			c0.367-0.184,0.742-0.275,1.125-0.275c0.73,0,1.35,0.266,1.857,0.797s0.762,1.221,0.762,2.068c0,0.707-0.205,1.338-0.615,1.893
			c-0.559,0.758-1.334,1.137-2.326,1.137c-0.793,0-1.439-0.213-1.939-0.639S445.218,223.834,445.121,223.115z"/>
		<path d="M452.123,225.324v-1.646h1.646v1.646H452.123z"/>
		<path d="M455.14,223.338l1.594-0.176c0.039,0.324,0.141,0.564,0.305,0.721s0.381,0.234,0.65,0.234c0.34,0,0.629-0.156,0.867-0.469
			s0.391-0.961,0.457-1.945c-0.414,0.48-0.932,0.721-1.553,0.721c-0.676,0-1.259-0.261-1.749-0.782s-0.735-1.2-0.735-2.036
			c0-0.871,0.259-1.573,0.776-2.106s1.177-0.8,1.978-0.8c0.871,0,1.586,0.337,2.145,1.011s0.838,1.782,0.838,3.325
			c0,1.57-0.291,2.703-0.873,3.398s-1.34,1.043-2.273,1.043c-0.672,0-1.215-0.179-1.629-0.536S455.257,224.049,455.14,223.338z
			 M458.867,219.74c0-0.531-0.122-0.943-0.366-1.236s-0.526-0.439-0.847-0.439c-0.305,0-0.558,0.12-0.759,0.36
			s-0.302,0.634-0.302,1.181c0,0.555,0.109,0.962,0.328,1.222s0.492,0.39,0.82,0.39c0.316,0,0.583-0.125,0.8-0.375
			S458.867,220.225,458.867,219.74z"/>
		<path d="M465.423,225.324v-8.59h1.734v8.59H465.423z"/>
		<path d="M474.458,225.324h-1.646v-3.176c0-0.672-0.035-1.106-0.105-1.304s-0.185-0.351-0.343-0.46s-0.349-0.164-0.571-0.164
			c-0.285,0-0.541,0.078-0.768,0.234s-0.382,0.363-0.466,0.621s-0.126,0.734-0.126,1.43v2.818h-1.646v-6.223h1.529v0.914
			c0.543-0.703,1.227-1.055,2.051-1.055c0.363,0,0.695,0.065,0.996,0.196s0.528,0.298,0.683,0.501s0.262,0.434,0.322,0.691
			s0.091,0.627,0.091,1.107V225.324z"/>
		<path d="M475.671,227.85c0.324-0.695,0.553-1.229,0.686-1.6s0.256-0.799,0.369-1.283s0.197-0.944,0.252-1.38
			s0.082-0.882,0.082-1.339c0-0.93-0.1-1.81-0.299-2.64s-0.566-1.837-1.102-3.021h1.119c0.59,0.84,1.048,1.73,1.374,2.672
			s0.489,1.896,0.489,2.865c0,0.816-0.129,1.691-0.387,2.625c-0.293,1.047-0.775,2.08-1.447,3.1H475.671z"/>
	</g>
	<g>
		<path d="M338.844,64.429h-1.646v-6.205c-0.602,0.563-1.311,0.979-2.127,1.248v-1.494c0.43-0.141,0.896-0.407,1.4-0.8
			s0.85-0.851,1.037-1.374h1.336V64.429z"/>
		<path d="M344.088,55.804c0.832,0,1.482,0.297,1.951,0.891c0.559,0.703,0.838,1.869,0.838,3.498c0,1.625-0.281,2.793-0.844,3.504
			c-0.465,0.586-1.113,0.879-1.945,0.879c-0.836,0-1.51-0.321-2.021-0.964s-0.768-1.788-0.768-3.437
			c0-1.617,0.281-2.781,0.844-3.492C342.608,56.097,343.256,55.804,344.088,55.804z M344.088,57.169
			c-0.199,0-0.377,0.063-0.533,0.19s-0.277,0.354-0.363,0.683c-0.113,0.426-0.17,1.143-0.17,2.15s0.051,1.7,0.152,2.077
			s0.229,0.628,0.384,0.753s0.331,0.188,0.53,0.188s0.377-0.063,0.533-0.19s0.277-0.354,0.363-0.683
			c0.113-0.422,0.17-1.137,0.17-2.145s-0.051-1.7-0.152-2.077s-0.229-0.629-0.384-0.756S344.288,57.169,344.088,57.169z"/>
		<path d="M350.762,55.804c0.832,0,1.482,0.297,1.951,0.891c0.559,0.703,0.838,1.869,0.838,3.498c0,1.625-0.281,2.793-0.844,3.504
			c-0.465,0.586-1.113,0.879-1.945,0.879c-0.836,0-1.51-0.321-2.021-0.964s-0.768-1.788-0.768-3.437
			c0-1.617,0.281-2.781,0.844-3.492C349.282,56.097,349.93,55.804,350.762,55.804z M350.762,57.169c-0.199,0-0.377,0.063-0.533,0.19
			s-0.277,0.354-0.363,0.683c-0.113,0.426-0.17,1.143-0.17,2.15s0.051,1.7,0.152,2.077s0.229,0.628,0.384,0.753
			s0.331,0.188,0.53,0.188s0.377-0.063,0.533-0.19s0.277-0.354,0.363-0.683c0.113-0.422,0.17-1.137,0.17-2.145
			s-0.051-1.7-0.152-2.077s-0.229-0.629-0.384-0.756S350.961,57.169,350.762,57.169z"/>
		<path d="M363.764,60.046l-1.623,0.293c-0.055-0.324-0.179-0.568-0.372-0.732s-0.444-0.246-0.753-0.246
			c-0.41,0-0.737,0.142-0.981,0.425s-0.366,0.757-0.366,1.421c0,0.738,0.124,1.26,0.372,1.564s0.581,0.457,0.999,0.457
			c0.313,0,0.568-0.089,0.768-0.267s0.34-0.483,0.422-0.917l1.617,0.275c-0.168,0.742-0.49,1.303-0.967,1.682
			s-1.115,0.568-1.916,0.568c-0.91,0-1.636-0.287-2.177-0.861s-0.812-1.369-0.812-2.385c0-1.027,0.271-1.827,0.814-2.399
			s1.277-0.858,2.203-0.858c0.758,0,1.36,0.163,1.808,0.489S363.569,59.378,363.764,60.046z"/>
		<path d="M364.889,58.207h1.518v0.85c0.543-0.66,1.189-0.99,1.939-0.99c0.398,0,0.744,0.082,1.037,0.246s0.533,0.412,0.721,0.744
			c0.273-0.332,0.568-0.58,0.885-0.744s0.654-0.246,1.014-0.246c0.457,0,0.844,0.093,1.16,0.278s0.553,0.458,0.709,0.817
			c0.113,0.266,0.17,0.695,0.17,1.289v3.979h-1.646v-3.557c0-0.617-0.057-1.016-0.17-1.195c-0.152-0.234-0.387-0.352-0.703-0.352
			c-0.23,0-0.447,0.07-0.65,0.211s-0.35,0.347-0.439,0.618s-0.135,0.7-0.135,1.286v2.988h-1.646v-3.41
			c0-0.605-0.029-0.996-0.088-1.172s-0.149-0.307-0.272-0.393s-0.29-0.129-0.501-0.129c-0.254,0-0.482,0.068-0.686,0.205
			s-0.349,0.334-0.437,0.592s-0.132,0.686-0.132,1.283v3.023h-1.646V58.207z"/>
		<path d="M333.386,81.354h-1.131c-0.598-0.902-1.053-1.84-1.365-2.813s-0.469-1.914-0.469-2.824c0-1.129,0.193-2.197,0.58-3.205
			c0.336-0.875,0.762-1.682,1.277-2.42h1.125c-0.535,1.184-0.903,2.19-1.104,3.021s-0.302,1.71-0.302,2.64
			c0,0.641,0.06,1.297,0.179,1.969s0.282,1.311,0.489,1.916C332.802,80.036,333.042,80.608,333.386,81.354z"/>
		<path d="M338.513,78.829h-1.646v-6.205c-0.602,0.563-1.311,0.979-2.127,1.248v-1.494c0.43-0.141,0.896-0.407,1.4-0.8
			s0.85-0.851,1.037-1.374h1.336V78.829z"/>
		<path d="M343.757,70.204c0.832,0,1.482,0.297,1.951,0.891c0.559,0.703,0.838,1.869,0.838,3.498c0,1.625-0.281,2.793-0.844,3.504
			c-0.465,0.586-1.113,0.879-1.945,0.879c-0.836,0-1.51-0.321-2.021-0.964s-0.768-1.788-0.768-3.437
			c0-1.617,0.281-2.781,0.844-3.492C342.277,70.497,342.925,70.204,343.757,70.204z M343.757,71.569
			c-0.199,0-0.377,0.063-0.533,0.19s-0.277,0.354-0.363,0.683c-0.113,0.426-0.17,1.143-0.17,2.15s0.051,1.7,0.152,2.077
			s0.229,0.628,0.384,0.753s0.331,0.188,0.53,0.188s0.377-0.063,0.533-0.19s0.277-0.354,0.363-0.683
			c0.113-0.422,0.17-1.137,0.17-2.145s-0.051-1.7-0.152-2.077s-0.229-0.629-0.384-0.756S343.957,71.569,343.757,71.569z"/>
		<path d="M350.431,70.204c0.832,0,1.482,0.297,1.951,0.891c0.559,0.703,0.838,1.869,0.838,3.498c0,1.625-0.281,2.793-0.844,3.504
			c-0.465,0.586-1.113,0.879-1.945,0.879c-0.836,0-1.51-0.321-2.021-0.964s-0.768-1.788-0.768-3.437
			c0-1.617,0.281-2.781,0.844-3.492C348.951,70.497,349.599,70.204,350.431,70.204z M350.431,71.569
			c-0.199,0-0.377,0.063-0.533,0.19s-0.277,0.354-0.363,0.683c-0.113,0.426-0.17,1.143-0.17,2.15s0.051,1.7,0.152,2.077
			s0.229,0.628,0.384,0.753s0.331,0.188,0.53,0.188s0.377-0.063,0.533-0.19s0.277-0.354,0.363-0.683
			c0.113-0.422,0.17-1.137,0.17-2.145s-0.051-1.7-0.152-2.077s-0.229-0.629-0.384-0.756S350.63,71.569,350.431,71.569z"/>
		<path d="M357.884,72.606h1.518v0.85c0.543-0.66,1.189-0.99,1.939-0.99c0.398,0,0.744,0.082,1.037,0.246s0.533,0.412,0.721,0.744
			c0.273-0.332,0.568-0.58,0.885-0.744s0.654-0.246,1.014-0.246c0.457,0,0.844,0.093,1.16,0.278s0.553,0.458,0.709,0.817
			c0.113,0.266,0.17,0.695,0.17,1.289v3.979h-1.646v-3.557c0-0.617-0.057-1.016-0.17-1.195c-0.152-0.234-0.387-0.352-0.703-0.352
			c-0.23,0-0.447,0.07-0.65,0.211s-0.35,0.347-0.439,0.618s-0.135,0.7-0.135,1.286v2.988h-1.646v-3.41
			c0-0.605-0.029-0.996-0.088-1.172s-0.149-0.307-0.272-0.393s-0.29-0.129-0.501-0.129c-0.254,0-0.482,0.068-0.686,0.205
			s-0.349,0.334-0.437,0.592s-0.132,0.686-0.132,1.283v3.023h-1.646V72.606z"/>
		<path d="M368.554,72.606h1.518v0.85c0.543-0.66,1.189-0.99,1.939-0.99c0.398,0,0.744,0.082,1.037,0.246s0.533,0.412,0.721,0.744
			c0.273-0.332,0.568-0.58,0.885-0.744s0.654-0.246,1.014-0.246c0.457,0,0.844,0.093,1.16,0.278s0.553,0.458,0.709,0.817
			c0.113,0.266,0.17,0.695,0.17,1.289v3.979h-1.646v-3.557c0-0.617-0.057-1.016-0.17-1.195c-0.152-0.234-0.387-0.352-0.703-0.352
			c-0.23,0-0.447,0.07-0.65,0.211s-0.35,0.347-0.439,0.618s-0.135,0.7-0.135,1.286v2.988h-1.646v-3.41
			c0-0.605-0.029-0.996-0.088-1.172s-0.149-0.307-0.272-0.393s-0.29-0.129-0.501-0.129c-0.254,0-0.482,0.068-0.686,0.205
			s-0.349,0.334-0.437,0.592s-0.132,0.686-0.132,1.283v3.023h-1.646V72.606z"/>
		<path d="M378.89,81.354c0.324-0.695,0.553-1.229,0.686-1.6s0.256-0.799,0.369-1.283s0.197-0.944,0.252-1.38
			s0.082-0.882,0.082-1.339c0-0.93-0.1-1.81-0.299-2.64s-0.566-1.837-1.102-3.021h1.119c0.59,0.84,1.048,1.73,1.374,2.672
			s0.489,1.896,0.489,2.865c0,0.816-0.129,1.691-0.387,2.625c-0.293,1.047-0.775,2.08-1.447,3.1H378.89z"/>
		<path d="M340.394,95.754h-1.131c-0.598-0.902-1.053-1.84-1.365-2.813s-0.469-1.914-0.469-2.824c0-1.129,0.193-2.197,0.58-3.205
			c0.336-0.875,0.762-1.682,1.277-2.42h1.125c-0.535,1.184-0.903,2.19-1.104,3.021s-0.302,1.71-0.302,2.64
			c0,0.641,0.06,1.297,0.179,1.969s0.282,1.311,0.489,1.916C339.81,94.436,340.05,95.008,340.394,95.754z"/>
		<path d="M341.25,90.95l1.594-0.193c0.051,0.406,0.188,0.717,0.41,0.932s0.492,0.322,0.809,0.322c0.34,0,0.626-0.129,0.858-0.387
			s0.349-0.605,0.349-1.043c0-0.414-0.111-0.742-0.334-0.984s-0.494-0.363-0.814-0.363c-0.211,0-0.463,0.041-0.756,0.123
			l0.182-1.342c0.445,0.012,0.785-0.085,1.02-0.29s0.352-0.478,0.352-0.817c0-0.289-0.086-0.52-0.258-0.691s-0.4-0.258-0.686-0.258
			c-0.281,0-0.521,0.098-0.721,0.293s-0.32,0.48-0.363,0.855l-1.518-0.258c0.105-0.52,0.265-0.935,0.478-1.245
			s0.51-0.555,0.891-0.732s0.808-0.267,1.28-0.267c0.809,0,1.457,0.258,1.945,0.773c0.402,0.422,0.604,0.898,0.604,1.43
			c0,0.754-0.412,1.355-1.236,1.805c0.492,0.105,0.886,0.342,1.181,0.709s0.442,0.811,0.442,1.33c0,0.754-0.275,1.396-0.826,1.928
			s-1.236,0.797-2.057,0.797c-0.777,0-1.422-0.224-1.934-0.671S341.332,91.672,341.25,90.95z"/>
		<path d="M348.333,93.229v-1.646h1.646v1.646H348.333z"/>
		<path d="M351.351,91.243l1.594-0.176c0.039,0.324,0.141,0.564,0.305,0.721s0.381,0.234,0.65,0.234c0.34,0,0.629-0.156,0.867-0.469
			s0.391-0.961,0.457-1.945c-0.414,0.48-0.932,0.721-1.553,0.721c-0.676,0-1.259-0.261-1.749-0.782s-0.735-1.2-0.735-2.036
			c0-0.871,0.259-1.573,0.776-2.106s1.177-0.8,1.978-0.8c0.871,0,1.586,0.337,2.145,1.011s0.838,1.782,0.838,3.325
			c0,1.57-0.291,2.703-0.873,3.398s-1.34,1.043-2.273,1.043c-0.672,0-1.215-0.179-1.629-0.536S351.468,91.954,351.351,91.243z
			 M355.078,87.645c0-0.531-0.122-0.943-0.366-1.236s-0.526-0.439-0.847-0.439c-0.305,0-0.558,0.12-0.759,0.36
			s-0.302,0.634-0.302,1.181c0,0.555,0.109,0.962,0.328,1.222s0.492,0.39,0.82,0.39c0.316,0,0.583-0.125,0.8-0.375
			S355.078,88.129,355.078,87.645z"/>
		<path d="M361.634,93.229v-8.59h1.734v8.59H361.634z"/>
		<path d="M370.669,93.229h-1.646v-3.176c0-0.672-0.035-1.106-0.105-1.304s-0.185-0.351-0.343-0.46s-0.349-0.164-0.571-0.164
			c-0.285,0-0.541,0.078-0.768,0.234s-0.382,0.363-0.466,0.621s-0.126,0.734-0.126,1.43v2.818h-1.646v-6.223h1.529v0.914
			c0.543-0.703,1.227-1.055,2.051-1.055c0.363,0,0.695,0.065,0.996,0.196s0.528,0.298,0.683,0.501s0.262,0.434,0.322,0.691
			s0.091,0.627,0.091,1.107V93.229z"/>
		<path d="M371.882,95.754c0.324-0.695,0.553-1.229,0.686-1.6s0.256-0.799,0.369-1.283s0.197-0.944,0.252-1.38
			s0.082-0.882,0.082-1.339c0-0.93-0.1-1.81-0.299-2.64s-0.566-1.837-1.102-3.021h1.119c0.59,0.84,1.048,1.73,1.374,2.672
			s0.489,1.896,0.489,2.865c0,0.816-0.129,1.691-0.387,2.625c-0.293,1.047-0.775,2.08-1.447,3.1H371.882z"/>
	</g>
	<g>
		<path d="M225.518-14.399h3.434c0.68,0,1.187,0.028,1.521,0.085s0.633,0.175,0.896,0.354s0.483,0.419,0.659,0.718
			s0.264,0.634,0.264,1.005c0,0.402-0.108,0.771-0.325,1.107s-0.511,0.588-0.882,0.756c0.523,0.152,0.926,0.412,1.207,0.779
			s0.422,0.799,0.422,1.295c0,0.391-0.091,0.771-0.272,1.14s-0.43,0.664-0.744,0.885s-0.702,0.356-1.163,0.407
			c-0.289,0.031-0.986,0.051-2.092,0.059h-2.924V-14.399z M227.252-12.97v1.986h1.137c0.676,0,1.096-0.01,1.26-0.029
			c0.297-0.035,0.53-0.138,0.7-0.308s0.255-0.394,0.255-0.671c0-0.266-0.073-0.481-0.22-0.647s-0.364-0.267-0.653-0.302
			c-0.172-0.02-0.666-0.029-1.482-0.029H227.252z M227.252-9.554v2.297h1.605c0.625,0,1.021-0.018,1.189-0.053
			c0.258-0.047,0.468-0.161,0.63-0.343s0.243-0.425,0.243-0.729c0-0.258-0.063-0.477-0.188-0.656s-0.306-0.311-0.542-0.393
			s-0.749-0.123-1.538-0.123H227.252z"/>
		<path d="M233.786-9.009c0-0.547,0.135-1.076,0.404-1.588s0.651-0.902,1.146-1.172s1.046-0.404,1.655-0.404
			c0.941,0,1.713,0.306,2.314,0.917s0.902,1.384,0.902,2.317c0,0.941-0.304,1.722-0.911,2.341s-1.372,0.929-2.294,0.929
			c-0.57,0-1.114-0.129-1.632-0.387s-0.911-0.636-1.181-1.134S233.786-8.294,233.786-9.009z M235.473-8.921
			c0,0.617,0.146,1.09,0.439,1.418s0.654,0.492,1.084,0.492s0.79-0.164,1.081-0.492s0.437-0.805,0.437-1.43
			c0-0.609-0.146-1.078-0.437-1.406s-0.651-0.492-1.081-0.492s-0.791,0.164-1.084,0.492S235.473-9.538,235.473-8.921z"/>
		<path d="M243.073-5.81h-1.646v-6.223h1.529v0.885c0.262-0.418,0.497-0.693,0.706-0.826s0.446-0.199,0.712-0.199
			c0.375,0,0.736,0.104,1.084,0.311l-0.51,1.436c-0.277-0.18-0.535-0.27-0.773-0.27c-0.23,0-0.426,0.063-0.586,0.19
			s-0.286,0.356-0.378,0.688s-0.138,1.027-0.138,2.086V-5.81z"/>
		<path d="M251.874-5.81h-1.529v-0.914c-0.254,0.355-0.554,0.62-0.899,0.794s-0.694,0.261-1.046,0.261
			c-0.715,0-1.327-0.288-1.837-0.864s-0.765-1.38-0.765-2.411c0-1.055,0.248-1.856,0.744-2.405s1.123-0.823,1.881-0.823
			c0.695,0,1.297,0.289,1.805,0.867v-3.094h1.646V-5.81z M247.479-9.056c0,0.664,0.092,1.145,0.275,1.441
			c0.266,0.43,0.637,0.645,1.113,0.645c0.379,0,0.701-0.161,0.967-0.483s0.398-0.804,0.398-1.444c0-0.715-0.129-1.229-0.387-1.544
			s-0.588-0.472-0.99-0.472c-0.391,0-0.718,0.155-0.981,0.466S247.479-9.673,247.479-9.056z"/>
		<path d="M257.1-7.79l1.641,0.275c-0.211,0.602-0.544,1.06-0.999,1.374s-1.024,0.472-1.708,0.472c-1.082,0-1.883-0.354-2.402-1.061
			c-0.41-0.566-0.615-1.281-0.615-2.145c0-1.031,0.27-1.839,0.809-2.423s1.221-0.876,2.045-0.876c0.926,0,1.656,0.306,2.191,0.917
			s0.791,1.548,0.768,2.81h-4.125c0.012,0.488,0.145,0.868,0.398,1.14s0.57,0.407,0.949,0.407c0.258,0,0.475-0.07,0.65-0.211
			S257.01-7.478,257.1-7.79z M257.194-9.454c-0.012-0.477-0.135-0.839-0.369-1.087s-0.52-0.372-0.855-0.372
			c-0.359,0-0.656,0.131-0.891,0.393s-0.35,0.617-0.346,1.066H257.194z"/>
		<path d="M261.747-5.81H260.1v-6.223h1.529v0.885c0.262-0.418,0.497-0.693,0.706-0.826s0.446-0.199,0.712-0.199
			c0.375,0,0.736,0.104,1.084,0.311l-0.51,1.436c-0.277-0.18-0.535-0.27-0.773-0.27c-0.23,0-0.426,0.063-0.586,0.19
			s-0.286,0.356-0.378,0.688s-0.138,1.027-0.138,2.086V-5.81z"/>
		<path d="M265.157-10.386v-1.646h1.646v1.646H265.157z M265.157-5.81v-1.646h1.646v1.646H265.157z"/>
		<path d="M276.032-5.81h-1.646v-6.205c-0.602,0.563-1.311,0.979-2.127,1.248v-1.494c0.43-0.141,0.896-0.407,1.4-0.8
			s0.85-0.851,1.037-1.374h1.336V-5.81z"/>
		<path d="M278.844-5.81v-1.646h1.646v1.646H278.844z"/>
		<path d="M281.85-8.019l1.641-0.17c0.047,0.371,0.186,0.665,0.416,0.882s0.496,0.325,0.797,0.325c0.344,0,0.635-0.14,0.873-0.419
			s0.357-0.7,0.357-1.263c0-0.527-0.118-0.923-0.354-1.187s-0.544-0.396-0.923-0.396c-0.473,0-0.896,0.209-1.271,0.627l-1.336-0.193
			l0.844-4.471h4.354v1.541h-3.105l-0.258,1.459c0.367-0.184,0.742-0.275,1.125-0.275c0.73,0,1.35,0.266,1.857,0.797
			s0.762,1.221,0.762,2.068c0,0.707-0.205,1.338-0.615,1.893c-0.559,0.758-1.334,1.137-2.326,1.137
			c-0.793,0-1.439-0.213-1.939-0.639S281.948-7.3,281.85-8.019z"/>
		<path d="M297.612-10.192l-1.623,0.293c-0.055-0.324-0.179-0.568-0.372-0.732s-0.444-0.246-0.753-0.246
			c-0.41,0-0.737,0.142-0.981,0.425s-0.366,0.757-0.366,1.421c0,0.738,0.124,1.26,0.372,1.564s0.581,0.457,0.999,0.457
			c0.313,0,0.568-0.089,0.768-0.267s0.34-0.483,0.422-0.917l1.617,0.275c-0.168,0.742-0.49,1.303-0.967,1.682
			s-1.115,0.568-1.916,0.568c-0.91,0-1.636-0.287-2.177-0.861s-0.812-1.369-0.812-2.385c0-1.027,0.271-1.827,0.814-2.399
			s1.277-0.858,2.203-0.858c0.758,0,1.36,0.163,1.808,0.489S297.417-10.86,297.612-10.192z"/>
		<path d="M298.737-12.032h1.518v0.85c0.543-0.66,1.189-0.99,1.939-0.99c0.398,0,0.744,0.082,1.037,0.246s0.533,0.412,0.721,0.744
			c0.273-0.332,0.568-0.58,0.885-0.744s0.654-0.246,1.014-0.246c0.457,0,0.844,0.093,1.16,0.278s0.553,0.458,0.709,0.817
			c0.113,0.266,0.17,0.695,0.17,1.289v3.979h-1.646v-3.557c0-0.617-0.057-1.016-0.17-1.195c-0.152-0.234-0.387-0.352-0.703-0.352
			c-0.23,0-0.447,0.07-0.65,0.211s-0.35,0.347-0.439,0.618s-0.135,0.7-0.135,1.286v2.988h-1.646v-3.41
			c0-0.605-0.029-0.996-0.088-1.172s-0.149-0.307-0.272-0.393s-0.29-0.129-0.501-0.129c-0.254,0-0.482,0.068-0.686,0.205
			s-0.349,0.334-0.437,0.592s-0.132,0.686-0.132,1.283v3.023h-1.646V-12.032z"/>
		<path d="M315.594-3.284h-1.131c-0.598-0.902-1.053-1.84-1.365-2.813s-0.469-1.914-0.469-2.824c0-1.129,0.193-2.197,0.58-3.205
			c0.336-0.875,0.762-1.682,1.277-2.42h1.125c-0.535,1.184-0.903,2.19-1.104,3.021s-0.302,1.71-0.302,2.64
			c0,0.641,0.06,1.297,0.179,1.969s0.282,1.311,0.489,1.916C315.01-4.603,315.25-4.03,315.594-3.284z"/>
		<path d="M320.721-5.81h-1.646v-6.205c-0.602,0.563-1.311,0.979-2.127,1.248v-1.494c0.43-0.141,0.896-0.407,1.4-0.8
			s0.85-0.851,1.037-1.374h1.336V-5.81z"/>
		<path d="M323.206-8.019l1.641-0.17c0.047,0.371,0.186,0.665,0.416,0.882s0.496,0.325,0.797,0.325c0.344,0,0.635-0.14,0.873-0.419
			s0.357-0.7,0.357-1.263c0-0.527-0.118-0.923-0.354-1.187s-0.544-0.396-0.923-0.396c-0.473,0-0.896,0.209-1.271,0.627l-1.336-0.193
			l0.844-4.471h4.354v1.541h-3.105l-0.258,1.459c0.367-0.184,0.742-0.275,1.125-0.275c0.73,0,1.35,0.266,1.857,0.797
			s0.762,1.221,0.762,2.068c0,0.707-0.205,1.338-0.615,1.893c-0.559,0.758-1.334,1.137-2.326,1.137
			c-0.793,0-1.439-0.213-1.939-0.639S323.303-7.3,323.206-8.019z"/>
		<path d="M333.418-12.032h1.518v0.85c0.543-0.66,1.189-0.99,1.939-0.99c0.398,0,0.744,0.082,1.037,0.246s0.533,0.412,0.721,0.744
			c0.273-0.332,0.568-0.58,0.885-0.744s0.654-0.246,1.014-0.246c0.457,0,0.844,0.093,1.16,0.278s0.553,0.458,0.709,0.817
			c0.113,0.266,0.17,0.695,0.17,1.289v3.979h-1.646v-3.557c0-0.617-0.057-1.016-0.17-1.195c-0.152-0.234-0.387-0.352-0.703-0.352
			c-0.23,0-0.447,0.07-0.65,0.211s-0.35,0.347-0.439,0.618s-0.135,0.7-0.135,1.286v2.988h-1.646v-3.41
			c0-0.605-0.029-0.996-0.088-1.172s-0.149-0.307-0.272-0.393s-0.29-0.129-0.501-0.129c-0.254,0-0.482,0.068-0.686,0.205
			s-0.349,0.334-0.437,0.592s-0.132,0.686-0.132,1.283v3.023h-1.646V-12.032z"/>
		<path d="M344.088-12.032h1.518v0.85c0.543-0.66,1.189-0.99,1.939-0.99c0.398,0,0.744,0.082,1.037,0.246s0.533,0.412,0.721,0.744
			c0.273-0.332,0.568-0.58,0.885-0.744s0.654-0.246,1.014-0.246c0.457,0,0.844,0.093,1.16,0.278s0.553,0.458,0.709,0.817
			c0.113,0.266,0.17,0.695,0.17,1.289v3.979h-1.646v-3.557c0-0.617-0.057-1.016-0.17-1.195c-0.152-0.234-0.387-0.352-0.703-0.352
			c-0.23,0-0.447,0.07-0.65,0.211s-0.35,0.347-0.439,0.618s-0.135,0.7-0.135,1.286v2.988h-1.646v-3.41
			c0-0.605-0.029-0.996-0.088-1.172s-0.149-0.307-0.272-0.393s-0.29-0.129-0.501-0.129c-0.254,0-0.482,0.068-0.686,0.205
			s-0.349,0.334-0.437,0.592s-0.132,0.686-0.132,1.283v3.023h-1.646V-12.032z"/>
		<path d="M354.424-3.284c0.324-0.695,0.553-1.229,0.686-1.6s0.256-0.799,0.369-1.283s0.197-0.944,0.252-1.38
			s0.082-0.882,0.082-1.339c0-0.93-0.1-1.81-0.299-2.64s-0.566-1.837-1.102-3.021h1.119c0.59,0.84,1.048,1.73,1.374,2.672
			s0.489,1.896,0.489,2.865c0,0.816-0.129,1.691-0.387,2.625c-0.293,1.047-0.775,2.08-1.447,3.1H354.424z"/>
		<path d="M364.942-3.284h-1.131c-0.598-0.902-1.053-1.84-1.365-2.813s-0.469-1.914-0.469-2.824c0-1.129,0.193-2.197,0.58-3.205
			c0.336-0.875,0.762-1.682,1.277-2.42h1.125c-0.535,1.184-0.903,2.19-1.104,3.021s-0.302,1.71-0.302,2.64
			c0,0.641,0.06,1.297,0.179,1.969s0.282,1.311,0.489,1.916C364.358-4.603,364.598-4.03,364.942-3.284z"/>
		<path d="M368.639-14.435c0.832,0,1.482,0.297,1.951,0.891c0.559,0.703,0.838,1.869,0.838,3.498c0,1.625-0.281,2.793-0.844,3.504
			c-0.465,0.586-1.113,0.879-1.945,0.879c-0.836,0-1.51-0.321-2.021-0.964s-0.768-1.788-0.768-3.437
			c0-1.617,0.281-2.781,0.844-3.492C367.159-14.142,367.807-14.435,368.639-14.435z M368.639-13.069
			c-0.199,0-0.377,0.063-0.533,0.19s-0.277,0.354-0.363,0.683c-0.113,0.426-0.17,1.143-0.17,2.15s0.051,1.7,0.152,2.077
			s0.229,0.628,0.384,0.753s0.331,0.188,0.53,0.188s0.377-0.063,0.533-0.19s0.277-0.354,0.363-0.683
			c0.113-0.422,0.17-1.137,0.17-2.145s-0.051-1.7-0.152-2.077s-0.229-0.629-0.384-0.756S368.838-13.069,368.639-13.069z"/>
		<path d="M372.881-5.81v-1.646h1.646v1.646H372.881z"/>
		<path d="M375.887-8.019l1.641-0.17c0.047,0.371,0.186,0.665,0.416,0.882s0.496,0.325,0.797,0.325c0.344,0,0.635-0.14,0.873-0.419
			s0.357-0.7,0.357-1.263c0-0.527-0.118-0.923-0.354-1.187s-0.544-0.396-0.923-0.396c-0.473,0-0.896,0.209-1.271,0.627l-1.336-0.193
			l0.844-4.471h4.354v1.541h-3.105l-0.258,1.459c0.367-0.184,0.742-0.275,1.125-0.275c0.73,0,1.35,0.266,1.857,0.797
			s0.762,1.221,0.762,2.068c0,0.707-0.205,1.338-0.615,1.893c-0.559,0.758-1.334,1.137-2.326,1.137
			c-0.793,0-1.439-0.213-1.939-0.639S375.985-7.3,375.887-8.019z"/>
		<path d="M382.573-7.796l1.594-0.176c0.039,0.324,0.141,0.564,0.305,0.721s0.381,0.234,0.65,0.234c0.34,0,0.629-0.156,0.867-0.469
			s0.391-0.961,0.457-1.945c-0.414,0.48-0.932,0.721-1.553,0.721c-0.676,0-1.259-0.261-1.749-0.782s-0.735-1.2-0.735-2.036
			c0-0.871,0.259-1.573,0.776-2.106s1.177-0.8,1.978-0.8c0.871,0,1.586,0.337,2.145,1.011s0.838,1.782,0.838,3.325
			c0,1.57-0.291,2.703-0.873,3.398s-1.34,1.043-2.273,1.043c-0.672,0-1.215-0.179-1.629-0.536S382.69-7.085,382.573-7.796z
			 M386.299-11.394c0-0.531-0.122-0.943-0.366-1.236s-0.526-0.439-0.847-0.439c-0.305,0-0.558,0.12-0.759,0.36
			s-0.302,0.634-0.302,1.181c0,0.555,0.109,0.962,0.328,1.222s0.492,0.39,0.82,0.39c0.316,0,0.583-0.125,0.8-0.375
			S386.299-10.909,386.299-11.394z"/>
		<path d="M392.856-5.81v-8.59h1.734v8.59H392.856z"/>
		<path d="M401.891-5.81h-1.646v-3.176c0-0.672-0.035-1.106-0.105-1.304s-0.185-0.351-0.343-0.46s-0.349-0.164-0.571-0.164
			c-0.285,0-0.541,0.078-0.768,0.234s-0.382,0.363-0.466,0.621s-0.126,0.734-0.126,1.43v2.818h-1.646v-6.223h1.529v0.914
			c0.543-0.703,1.227-1.055,2.051-1.055c0.363,0,0.695,0.065,0.996,0.196s0.528,0.298,0.683,0.501s0.262,0.434,0.322,0.691
			s0.091,0.627,0.091,1.107V-5.81z"/>
		<path d="M403.104-3.284c0.324-0.695,0.553-1.229,0.686-1.6s0.256-0.799,0.369-1.283s0.197-0.944,0.252-1.38
			s0.082-0.882,0.082-1.339c0-0.93-0.1-1.81-0.299-2.64s-0.566-1.837-1.102-3.021h1.119c0.59,0.84,1.048,1.73,1.374,2.672
			s0.489,1.896,0.489,2.865c0,0.816-0.129,1.691-0.387,2.625c-0.293,1.047-0.775,2.08-1.447,3.1H403.104z"/>
	</g>
	<g>
		<path d="M65.626,242.478v1.646h-6.205c0.563,0.602,0.979,1.311,1.248,2.127h-1.494c-0.141-0.43-0.407-0.896-0.8-1.4
			s-0.851-0.85-1.374-1.037v-1.336H65.626z"/>
		<path d="M57.001,237.233c0-0.832,0.297-1.482,0.891-1.951c0.703-0.559,1.869-0.838,3.498-0.838c1.625,0,2.793,0.281,3.504,0.844
			c0.586,0.465,0.879,1.113,0.879,1.945c0,0.836-0.321,1.51-0.964,2.021s-1.788,0.768-3.437,0.768c-1.617,0-2.781-0.281-3.492-0.844
			C57.294,238.714,57.001,238.065,57.001,237.233z M58.367,237.233c0,0.199,0.063,0.377,0.19,0.533s0.354,0.277,0.683,0.363
			c0.426,0.113,1.143,0.17,2.15,0.17s1.7-0.051,2.077-0.152s0.628-0.23,0.753-0.385s0.188-0.33,0.188-0.529s-0.063-0.377-0.19-0.533
			s-0.354-0.277-0.683-0.363c-0.422-0.113-1.137-0.17-2.145-0.17s-1.7,0.051-2.077,0.152s-0.629,0.229-0.756,0.383
			S58.367,237.034,58.367,237.233z"/>
		<path d="M57.001,230.56c0-0.832,0.297-1.482,0.891-1.951c0.703-0.559,1.869-0.838,3.498-0.838c1.625,0,2.793,0.281,3.504,0.844
			c0.586,0.465,0.879,1.113,0.879,1.945c0,0.836-0.321,1.51-0.964,2.021s-1.788,0.768-3.437,0.768c-1.617,0-2.781-0.281-3.492-0.844
			C57.294,232.04,57.001,231.392,57.001,230.56z M58.367,230.56c0,0.199,0.063,0.377,0.19,0.533s0.354,0.277,0.683,0.363
			c0.426,0.113,1.143,0.17,2.15,0.17s1.7-0.051,2.077-0.152s0.628-0.23,0.753-0.385s0.188-0.33,0.188-0.529s-0.063-0.377-0.19-0.533
			s-0.354-0.277-0.683-0.363c-0.422-0.113-1.137-0.17-2.145-0.17s-1.7,0.051-2.077,0.152s-0.629,0.229-0.756,0.383
			S58.367,230.36,58.367,230.56z"/>
		<path d="M61.244,217.558l0.293,1.623c-0.324,0.055-0.568,0.178-0.732,0.371s-0.246,0.445-0.246,0.754
			c0,0.41,0.142,0.736,0.425,0.98s0.757,0.367,1.421,0.367c0.738,0,1.26-0.125,1.564-0.373s0.457-0.58,0.457-0.998
			c0-0.313-0.089-0.568-0.267-0.768s-0.483-0.34-0.917-0.422l0.275-1.617c0.742,0.168,1.303,0.49,1.682,0.967
			s0.568,1.115,0.568,1.916c0,0.91-0.287,1.635-0.861,2.176s-1.369,0.813-2.385,0.813c-1.027,0-1.827-0.271-2.399-0.814
			s-0.858-1.277-0.858-2.203c0-0.758,0.163-1.361,0.489-1.809S60.576,217.753,61.244,217.558z"/>
		<path d="M59.404,216.433v-1.518h0.85c-0.66-0.543-0.99-1.189-0.99-1.939c0-0.398,0.082-0.744,0.246-1.037s0.412-0.533,0.744-0.721
			c-0.332-0.273-0.58-0.568-0.744-0.885s-0.246-0.654-0.246-1.014c0-0.457,0.093-0.844,0.278-1.16s0.458-0.553,0.817-0.709
			c0.266-0.113,0.695-0.17,1.289-0.17h3.979v1.646H62.07c-0.617,0-1.016,0.057-1.195,0.17c-0.234,0.152-0.352,0.387-0.352,0.703
			c0,0.23,0.07,0.447,0.211,0.65s0.347,0.35,0.618,0.439s0.7,0.135,1.286,0.135h2.988v1.646h-3.41c-0.605,0-0.996,0.029-1.172,0.088
			s-0.307,0.148-0.393,0.271s-0.129,0.291-0.129,0.502c0,0.254,0.068,0.482,0.205,0.686s0.334,0.348,0.592,0.436
			s0.686,0.133,1.283,0.133h3.023v1.646H59.404z"/>
		<path d="M68.152,196.241v1.131c-0.902,0.598-1.84,1.053-2.813,1.365s-1.914,0.469-2.824,0.469c-1.129,0-2.197-0.193-3.205-0.58
			c-0.875-0.336-1.682-0.762-2.42-1.277v-1.125c1.184,0.535,2.19,0.902,3.021,1.104s1.71,0.303,2.64,0.303
			c0.641,0,1.297-0.061,1.969-0.18s1.311-0.281,1.916-0.488C66.833,196.825,67.406,196.585,68.152,196.241z"/>
		<path d="M65.626,191.114v1.646h-6.205c0.563,0.602,0.979,1.311,1.248,2.127h-1.494c-0.141-0.43-0.407-0.896-0.8-1.4
			s-0.851-0.85-1.374-1.037v-1.336H65.626z"/>
		<path d="M57.001,185.87c0-0.832,0.297-1.482,0.891-1.951c0.703-0.559,1.869-0.838,3.498-0.838c1.625,0,2.793,0.281,3.504,0.844
			c0.586,0.465,0.879,1.113,0.879,1.945c0,0.836-0.321,1.51-0.964,2.021s-1.788,0.768-3.437,0.768c-1.617,0-2.781-0.281-3.492-0.844
			C57.294,187.351,57.001,186.702,57.001,185.87z M58.367,185.87c0,0.199,0.063,0.377,0.19,0.533s0.354,0.277,0.683,0.363
			c0.426,0.113,1.143,0.17,2.15,0.17s1.7-0.051,2.077-0.152s0.628-0.23,0.753-0.385s0.188-0.33,0.188-0.529s-0.063-0.377-0.19-0.533
			s-0.354-0.277-0.683-0.363c-0.422-0.113-1.137-0.17-2.145-0.17s-1.7,0.051-2.077,0.152s-0.629,0.229-0.756,0.383
			S58.367,185.671,58.367,185.87z"/>
		<path d="M57.001,179.196c0-0.832,0.297-1.482,0.891-1.951c0.703-0.559,1.869-0.838,3.498-0.838c1.625,0,2.793,0.281,3.504,0.844
			c0.586,0.465,0.879,1.113,0.879,1.945c0,0.836-0.321,1.51-0.964,2.021s-1.788,0.768-3.437,0.768c-1.617,0-2.781-0.281-3.492-0.844
			C57.294,180.677,57.001,180.028,57.001,179.196z M58.367,179.196c0,0.199,0.063,0.377,0.19,0.533s0.354,0.277,0.683,0.363
			c0.426,0.113,1.143,0.17,2.15,0.17s1.7-0.051,2.077-0.152s0.628-0.23,0.753-0.385s0.188-0.33,0.188-0.529s-0.063-0.377-0.19-0.533
			s-0.354-0.277-0.683-0.363c-0.422-0.113-1.137-0.17-2.145-0.17s-1.7,0.051-2.077,0.152s-0.629,0.229-0.756,0.383
			S58.367,178.997,58.367,179.196z"/>
		<path d="M59.404,171.743v-1.518h0.85c-0.66-0.543-0.99-1.19-0.99-1.94c0-0.398,0.082-0.744,0.246-1.037s0.412-0.533,0.744-0.721
			c-0.332-0.273-0.58-0.568-0.744-0.885s-0.246-0.654-0.246-1.014c0-0.457,0.093-0.844,0.278-1.16s0.458-0.553,0.817-0.709
			c0.266-0.113,0.695-0.17,1.289-0.17h3.979v1.646H62.07c-0.617,0-1.016,0.057-1.195,0.17c-0.234,0.152-0.352,0.387-0.352,0.703
			c0,0.23,0.07,0.447,0.211,0.65s0.347,0.35,0.618,0.439s0.7,0.135,1.286,0.135h2.988v1.646h-3.41c-0.605,0-0.996,0.029-1.172,0.088
			s-0.307,0.149-0.393,0.272s-0.129,0.29-0.129,0.501c0,0.254,0.068,0.483,0.205,0.686s0.334,0.348,0.592,0.436
			s0.686,0.133,1.283,0.133h3.023v1.646H59.404z"/>
		<path d="M59.404,161.073v-1.518h0.85c-0.66-0.543-0.99-1.189-0.99-1.939c0-0.398,0.082-0.744,0.246-1.037s0.412-0.533,0.744-0.721
			c-0.332-0.273-0.58-0.568-0.744-0.885s-0.246-0.654-0.246-1.014c0-0.457,0.093-0.844,0.278-1.16s0.458-0.553,0.817-0.709
			c0.266-0.113,0.695-0.17,1.289-0.17h3.979v1.646H62.07c-0.617,0-1.016,0.057-1.195,0.17c-0.234,0.152-0.352,0.387-0.352,0.703
			c0,0.23,0.07,0.447,0.211,0.65s0.347,0.35,0.618,0.439s0.7,0.135,1.286,0.135h2.988v1.646h-3.41c-0.605,0-0.996,0.029-1.172,0.088
			s-0.307,0.149-0.393,0.272s-0.129,0.29-0.129,0.501c0,0.254,0.068,0.482,0.205,0.686s0.334,0.349,0.592,0.437
			s0.686,0.132,1.283,0.132h3.023v1.646H59.404z"/>
		<path d="M68.152,150.737c-0.695-0.324-1.229-0.553-1.6-0.686s-0.799-0.256-1.283-0.369s-0.944-0.197-1.38-0.252
			s-0.882-0.082-1.339-0.082c-0.93,0-1.81,0.1-2.64,0.299s-1.837,0.566-3.021,1.102v-1.119c0.84-0.59,1.73-1.048,2.672-1.374
			s1.896-0.489,2.865-0.489c0.816,0,1.691,0.129,2.625,0.387c1.047,0.293,2.08,0.775,3.1,1.447V150.737z"/>
		<path d="M82.552,212.917v1.131c-0.902,0.598-1.84,1.053-2.813,1.365s-1.914,0.469-2.824,0.469c-1.129,0-2.197-0.193-3.205-0.58
			c-0.875-0.336-1.682-0.762-2.42-1.277v-1.125c1.184,0.535,2.19,0.902,3.021,1.104s1.71,0.303,2.64,0.303
			c0.641,0,1.297-0.061,1.969-0.18s1.311-0.281,1.916-0.488C81.233,213.501,81.806,213.261,82.552,212.917z"/>
		<path d="M77.747,212.062l-0.193-1.594c0.406-0.051,0.717-0.188,0.932-0.41s0.322-0.492,0.322-0.809
			c0-0.34-0.129-0.627-0.387-0.859s-0.605-0.348-1.043-0.348c-0.414,0-0.742,0.111-0.984,0.334s-0.363,0.494-0.363,0.814
			c0,0.211,0.041,0.463,0.123,0.756l-1.342-0.182c0.012-0.445-0.085-0.785-0.29-1.02s-0.478-0.352-0.817-0.352
			c-0.289,0-0.52,0.086-0.691,0.258s-0.258,0.4-0.258,0.686c0,0.281,0.098,0.521,0.293,0.721s0.48,0.32,0.855,0.363l-0.258,1.518
			c-0.52-0.105-0.935-0.266-1.245-0.479s-0.555-0.51-0.732-0.891s-0.267-0.807-0.267-1.279c0-0.809,0.258-1.457,0.773-1.945
			c0.422-0.402,0.898-0.604,1.43-0.604c0.754,0,1.355,0.412,1.805,1.236c0.105-0.492,0.342-0.887,0.709-1.182
			s0.811-0.441,1.33-0.441c0.754,0,1.396,0.275,1.928,0.826s0.797,1.236,0.797,2.057c0,0.777-0.224,1.422-0.671,1.934
			S78.47,211.979,77.747,212.062z"/>
		<path d="M80.026,204.978H78.38v-1.646h1.646V204.978z"/>
		<path d="M78.04,201.96l-0.176-1.594c0.324-0.039,0.564-0.141,0.721-0.305s0.234-0.381,0.234-0.65c0-0.34-0.156-0.629-0.469-0.867
			s-0.961-0.391-1.945-0.457c0.48,0.414,0.721,0.932,0.721,1.553c0,0.676-0.261,1.258-0.782,1.748s-1.2,0.736-2.036,0.736
			c-0.871,0-1.573-0.26-2.106-0.777s-0.8-1.176-0.8-1.977c0-0.871,0.337-1.586,1.011-2.145s1.782-0.838,3.325-0.838
			c1.57,0,2.703,0.291,3.398,0.873s1.043,1.34,1.043,2.273c0,0.672-0.179,1.215-0.536,1.629S78.751,201.843,78.04,201.96z
			 M74.442,198.233c-0.531,0-0.943,0.121-1.236,0.365s-0.439,0.527-0.439,0.848c0,0.305,0.12,0.557,0.36,0.758
			s0.634,0.303,1.181,0.303c0.555,0,0.962-0.109,1.222-0.328s0.39-0.492,0.39-0.82c0-0.316-0.125-0.584-0.375-0.801
			S74.927,198.233,74.442,198.233z"/>
		<path d="M80.026,191.677h-8.59v-1.734h8.59V191.677z"/>
		<path d="M80.026,182.642v1.646h-3.176c-0.672,0-1.106,0.035-1.304,0.105s-0.351,0.184-0.46,0.342s-0.164,0.35-0.164,0.572
			c0,0.285,0.078,0.541,0.234,0.768s0.363,0.381,0.621,0.465s0.734,0.127,1.43,0.127h2.818v1.646h-6.223v-1.529h0.914
			c-0.703-0.543-1.055-1.227-1.055-2.051c0-0.363,0.065-0.695,0.196-0.996s0.298-0.529,0.501-0.684s0.434-0.262,0.691-0.322
			s0.627-0.09,1.107-0.09H80.026z"/>
		<path d="M82.552,181.429c-0.695-0.324-1.229-0.553-1.6-0.686s-0.799-0.256-1.283-0.369s-0.944-0.197-1.38-0.252
			s-0.882-0.082-1.339-0.082c-0.93,0-1.81,0.1-2.64,0.299s-1.837,0.566-3.021,1.102v-1.119c0.84-0.59,1.73-1.049,2.672-1.375
			s1.896-0.488,2.865-0.488c0.816,0,1.691,0.129,2.625,0.387c1.047,0.293,2.08,0.775,3.1,1.447V181.429z"/>
	</g>
</g>
</svg>
